<?xml version="1.0" encoding="utf-8"?>
<!-- Generator: Adobe Illustrator 24.2.3, SVG Export Plug-In . SVG Version: 6.00 Build 0)  -->
<svg version="1.1" id="Livello_1" xmlns="http://www.w3.org/2000/svg" xmlns:xlink="http://www.w3.org/1999/xlink" x="0px" y="0px"
	 viewBox="0 0 1300.4 892.8" style="enable-background:new 0 0 1300.4 892.8;" xml:space="preserve">
<path d="M0.6,308.3c0-10.7-1.4-21.7,0.2-32.1c6.8-42.9-0.8-86.2,4.1-128.8c3.9-34.9,0.2-69.5,3.2-104.1c1.3-15.3,4.3-31.9,22-38.4
	c7.5-2.7,15.8-5,23.7-4.9c32.1,0.6,64.2,2.1,96.2,3.5c34.1,1.6,65.6,10.2,87.4,38.9c6.5,8.6,10.6,19.2,14.4,29.5
	c2.5,6.7,3.1,14.2,3.6,21.4c1.3,18.4-8.2,33.1-17.2,47.9c-21,34.4-50,61.5-79.2,88.7c-11.3,10.5-20.3,23.4-30.8,34.8
	c-5.7,6.2-0.4,11.8,0.4,17.4c1.1,7.6,4,15,6.4,22.4c4.6,14.3,10.6,28.2,13.6,42.8c1.5,7.2,7.4,14.1,2.2,23.3
	c-6.8,12-17.8,14.7-25.8,3c-6.3-9.1-10.2-19.9-15.1-30c-2.5-5.3-4.6-10.9-7.2-16.2c-3.4-7-7.4-13.6-10.6-20.7
	c-2.4-5.4-6.1-4.6-9.2-2.1c-9.9,7.9-19.5,16.1-28.9,24.6c-8.5,7.8-13.8,16.9-13.8,29.3c0,12.9-9.6,22.8-19.6,22.5
	c-7-0.2-15.5-9.1-16.3-17.4C2.4,345.2,0.1,308.3,0.6,308.3z M44.1,250.7h0.2c0,17.9-0.1,35.8,0.1,53.6c0,2.2,1.5,4.3,2.4,6.5
	c2.1-0.9,4.6-1.4,6.3-2.8c7.4-5.8,14.7-11.6,21.7-17.8c7.8-6.9,15.2-14.1,22.2-21.8c25.8-29,51.8-57.8,76.5-87.8
	c16.4-20.1,26.9-44.3,30.4-70c2.5-18.1,2.6-36.8-5.9-55c-10.4-22.2-30.4-37.7-54.8-37.9c-6.3-0.1-12.9,0.6-18.9-1
	c-18.2-4.7-36-2.2-53.9,1.1c-9.4,1.8-17.4,10.7-18.4,19.8c-1.6,14-3.5,28.1-3.9,42.2c-1.4,43.5,1.9,87.1-3.6,130.6
	C42.6,223.6,44.1,237.3,44.1,250.7L44.1,250.7z"/>
<path d="M661.3,717.2c0-49-0.5-97.9,0.3-146.8c0.2-13.1,4.3-26.1,6.8-39.1s13-18.7,23.8-22.3c8.5-2.9,18-4,27.1-4.1
	c44.8-0.4,89.7-0.7,134.5,0.2c12.2,0.2,24.4,4,36.3,7.2c6.8,1.8,11.5,7.7,10.4,14.7c-1.2,6.8-6.3,11.1-14.3,10.9
	c-16.2-0.5-32.4-0.4-48.6-0.9c-25.3-0.8-50.6-2.8-75.9-2.4c-13,0.2-26.3,3.2-38.6,7.5c-5.1,1.8-9.5,10-11.4,16.1
	c-5.7,18.5-3.8,37.5-1.2,56.3c0.4,2.6,4.4,6.3,7.2,6.7c17.7,3,35.5-0.9,53.2,0.5c11.8,1,23.8,1.7,35.5,3.7c5.8,1,10.4,5.7,10.1,12.2
	c-0.4,7.5-6,11.3-12.8,12.6c-3.7,0.7-7.7,0.3-11.5,0.5c-20,1-40,1.8-60,3.1c-13,0.8-17.8,4.8-20.7,17.6c-2,9.4-3.2,18.9-3.8,28.4
	c-0.6,9.3,0,18.7-0.2,28c-1.1,47.5-2.3,95-3.5,142.5c-0.4,13.2-10.5,22.8-23.3,22.5c-10.9-0.3-19.5-10.4-19.5-23
	C661.3,818.9,661.3,768,661.3,717.2L661.3,717.2z"/>
<path d="M300.7,533.8c-26.7,0-53.4-0.1-80,0c-24,0.2-34.6,11.1-34.5,35.3c0,8-0.8,16.1,0.2,23.9c1.5,11.7,4.3,23.3,6.6,34.9
	c1.3,6.3,3,12.5,4.2,18.8c5.5,30.1,17.6,57.9,34.1,83.3c19.2,29.6,43.9,54.5,72.4,75.3c14.7,10.7,31,17.7,49.5,19.9
	c10.1,1.2,20.7,3.7,29.6,8.4c11.9,6.2,14,25.4,9.2,37.2c-1,2.5-1.7,5.2-3.1,7.4c-6.4,10.5-20.3,14.4-32.3,9.9
	c-59.2-22.4-105.7-61.4-142.3-111.9c-13.3-18.2-21.7-40.1-31.7-60.7c-5.4-11.1-9.9-22.5-13.7-34.2c-3.5-10.9-5.7-22.2-8.1-33.4
	c-2.4-10.7-4.3-21.6-6.4-32.4c-0.5-2.4-0.8-4.9-0.8-7.3c-0.1-23.4-0.9-46.8,0.2-70.1c0.7-14.1,8.4-30.8,26-33.6
	c8.7-1.4,17.4-3.2,26.2-3.3c25.6-0.5,51.1-0.1,76.7-0.5c7-0.1,14-3,21-2.8c19.7,0.6,39.5,0.9,58.9,3.7c9.5,1.4,20.2,3.2,27.7,11.6
	c4.2,4.8,5.3,10.4,2.7,15c-1.8,3.1-7.5,5.6-11.4,5.7c-26.9,0.5-53.9,0.2-80.8,0.2L300.7,533.8z"/>
<path d="M1121.2,194.8c0,41.2-0.6,82.5,0.3,123.7c0.3,12.1,1.6,25,10.2,35.2c6.9,8.3,15.6,12.4,26.4,12.4c39.6,0,79.2-0.2,118.7,0.2
	c5.9,0.1,12.2,2.5,17.6,5.2c6.4,3.2,6.8,10.6,4.7,15.9c-1.9,4.6-6.8,8.6-11.3,11.2c-11.3,6.6-24,3.4-36.1,3.9
	c-37.9,1.3-75.7,3.1-113.6,3.2c-12.9,0-26.2-3.1-38.7-7.1c-10.8-3.4-17.1-12.7-18.7-24.3c-8.3-59.8-1.9-119.8-3.5-179.8
	c-1-36.8-0.7-73.7,0.2-110.5c0.2-10.7,4.1-21.5,7.1-32c2.3-8.4,9.7-12.5,17.4-11.5s13.8,6.7,15.4,15c1.7,9,3.5,18.1,3.6,27.2
	c0.4,37.4,0.2,74.8,0.2,112.1L1121.2,194.8z"/>
<path d="M463,264.8c-0.7,35.6-2.2,71.2-3.5,106.9c-0.3,9.6-11.8,22.4-20.8,23.7c-8.4,1.2-19.6-8-22.7-18c-4.5-14-5-27.9-0.8-42
	c0.8-2.8,0.8-6,0.8-9c0.1-9.9,0-19.8,0.2-29.7c1.3-78.5,2.7-157,4.1-235.5c0.4-20.6-1.3-24-22.3-24.8c-16.3-0.6-32.6,1.8-49,2.7
	c-9.8,0.6-19.6,1.3-29.4,1.2c-7.4-0.1-12.9-5.8-12.3-11.9c0.5-5,5.9-11.1,10.7-13.6c5.8-3.1,13.3-3.8,20.1-3.9
	c19.8-0.4,39.9-2.2,59.3,0.4c38.9,5.2,77.8,1.3,116.6,3.4c15.6,0.8,31.1,4.4,46.6,6.8c0.5,0,1.1,0.1,1.6,0.3
	c10.9,3.3,16.9,12.2,13.9,20.7c-2.6,7.2-12.8,9.9-22.9,6.6c-24.6-8.2-50.5-11.8-76.4-10.5c-7.7,0.4-10.5,3.1-10.8,11.4
	c-1.1,41.1-3,82.1-4.6,123.2C461.7,174,463.6,234.2,463,264.8z"/>
<path d="M433.4,582.3c11.7-1.9,23.6-1.9,35.3,0c6.1,1,12,2.1,17.8,3.8c15,4.3,22.2,17.1,27.4,30.4c11.3,29.2,21.9,58.7,32.8,88
	c13.3,36,26.9,72,39.9,108.2c6.8,19,12.5,38.3,18.3,57.6c2.1,6.9,1.5,14.1-5,18.5c-5.2,3.5-13,0-18.1-7.1c-2-2.6-3.6-5.5-4.9-8.5
	c-12.4-30.5-24.2-61.2-37-91.5c-10.3-24.3-22.1-47.9-32.3-72.3c-3.7-8.8-8-11.2-17.3-10.2c-8.6,1-17.5-1.6-26.2-1.3
	c-21.1,0.6-42.2,1.5-63.2,3.5c-3.7,0.3-7.8,5.9-10.1,10c-6.7,12-12.2,24.6-18.8,36.4c-4.3,7.6-13,10-18.9,6.7s-7.8-12.9-4.9-20.6
	c4.6-12.3,8.7-24.8,13-37.3c4.6-13.4,9.4-26.7,13.8-40.2c3.1-9.7,5.3-19.8,8.4-29.5c5.5-16.9,11.5-34.3,30.5-40.3
	C420.1,584.6,426.7,583.4,433.4,582.3z M407.4,670.9c1.7,0.6,2.7,1.3,3.7,1.3c23-0.2,46.1-0.2,69.1-1c11.3-0.4,11.6-1.5,9.2-12.1
	c-0.4-1.8,0-3.9-0.5-5.7c-3.1-10.7-6.3-17.7-13.5-17.3c-17.7,1.1-35.5,1.8-53.2,3c-1.8,0.1-4.6,1.6-5.2,3.1
	C413.5,651.6,410.6,661.2,407.4,670.9z"/>
<path d="M733.3,223.8c0,21.5,0.5,42.9-0.1,64.4c-0.7,25.8-1.4,51.6-3.9,77.2c-1,10.7-4.6,23.2-16.9,26.8c-8.7,2.6-19.4,4.4-27.6,1.7
	c-29.3-9.6-55.2-26-78.2-46.4c-11.8-10.4-22.3-22.5-32.3-34.7c-20.8-25.2-34.1-54.6-44.1-85.4c-4.2-13.1-6.5-26.9-8.2-40.6
	c-2-16.2-3.5-32.7-3.3-49c0.1-9.2,3.1-18.8,6.7-27.4c5.5-13.1,16.9-18.4,30.7-16.2c10,1.6,17,13.9,12.6,23.5
	c-8.1,17.6-11.1,36-10.4,55.2c0.2,4.9,0.2,9.9,0,14.8c-0.7,14.6,3.3,28.3,6.5,42.3c6.4,27.6,17.9,53.8,34,77.1
	c15.7,23,34.1,43.4,59.2,56.5c7.7,4,15.7,7.4,23.4,11.4c4.7,2.4,7,0.1,7.6-4c0.7-4.3,0.5-8.8,0.7-13.1c1.5-37.5,3.2-75.1,4.5-112.6
	c1.4-38.4,2.4-76.7,4-115.1c0.2-5.6,1.7-11.8,4.8-16.3c2.7-4,8.6-8.6,12.7-8.2c4.7,0.4,10.6,5,13,9.4c3.1,5.7,4.4,13,4.5,19.6
	C733.6,164.4,733.3,194.1,733.3,223.8z"/>
<path d="M923.2,657.8c1.5,18.2,2.9,35,4.3,51.7c0.2,2.5,0.2,4.9,0.4,7.4c1.2,12.9,1.1,26.2,4.1,38.7c4.9,20.5,8.9,41.6,20.9,59.7
	c13.7,20.8,31.4,35.4,56.4,41.9c13.2,3.5,24.7,3.5,37.4,0s20-0.6,23.6,7.2c4.9,10.6-3.2,23.5-14.9,24.7
	c-15.4,1.6-28.3-5.3-41.7-11.1c-30.1-13.2-56-32.1-76.4-57.9c-18.9-23.9-35.3-49.6-45.2-78.6c-6.6-19.4-9.8-39.6-12.5-60.2
	c-2.4-18.7-2.6-37.1-2.4-55.6c0.1-10.4,3.6-20.4,10-28.5c9.5-12,23.3-14.9,36.7-15.9c19.7-1.6,39.6-0.4,59.3-0.4
	c9.8,0,19.7-0.7,29.3,0.3c15.8,1.8,32.1,3,47,7.9c7.2,2.3,14,11.8,16.9,19.5c3.6,9.8,4.7,21.3,4.1,31.9c-1.2,21.6-12,25-30.3,18.6
	c-7.5-2.6-15.6-4.8-23.5-5.1c-21.2-0.7-42.3-0.6-63.5,0C950.6,654.6,938.1,656.4,923.2,657.8z M992.1,644.5c0.9,0,1.7,0,2.6-0.1
	c18.5-1.7,36.9-3.3,55.4-5c1.7-0.2,4-0.9,4.9-2.2c7.5-11.3-1.8-30.1-15.7-30.4c-31.1-0.5-62.2-0.6-93.2,0.1
	c-14.4,0.3-23.4,10.5-21.9,22.8c0.3,2.2,2.3,5.4,4.1,5.8c15.5,3.5,30.8,8.7,47,7.7C981,642.8,983.2,644.3,992.1,644.5z"/>
<path d="M781.2,245.1c3.2-10,6.1-20.1,9.5-30.1c6.7-19.2,13.2-38.4,20.6-57.2c5.3-13.5,10.8-27.2,18.3-39.5s20.5-16.3,34.7-16.8
	c16-0.5,31.7,0.3,46.6,6.7c12.4,5.3,19.3,15.4,24,27.3c8.5,21.5,16.7,43.1,24.8,64.7c6.4,17.1,12.1,34.5,19,51.5
	c12.7,31.4,26,62.5,39,93.8c4.1,10,8.1,20,11.6,30.1c2.2,5.7-0.2,12.1-5.6,15c-5.7,3.2-12,1-15-4.5c-5.7-10.6-10.8-21.4-15.3-32.5
	c-5.8-13.9-10.9-28-16.3-42s-10.6-28-16.6-41.7c-8.2-18.7-17-37.1-26.2-55.3c-1.3-2.6-6.2-4.9-9.5-4.9c-26.4-0.4-52.8,0.1-79.2-0.2
	c-17.6-0.2-25,11.3-31.3,25.1c-3,6.6-6.6,13.3-11.4,18.8c-2.7,3.1-8.7,5.8-12.3,5C785.1,257.1,780.9,252.3,781.2,245.1z
	 M878.3,191.1c11,0,21.9,0.1,32.9,0c8.6-0.1,11.1-3.8,8-11.9c-2.3-6-4.6-12.2-7.9-17.7c-1.9-3.1-5.6-7-8.7-7.2
	c-17.6-1.1-35.3-1.6-53-1.5c-2.5,0-6,3.8-7.2,6.6c-2.8,6.8-5.1,13.8-7,20.9c-1.8,6.4,0.5,10.1,7.6,10.1
	C854.8,190.3,874.8,191,878.3,191.1z"/>
<path d="M339.3,169.4c0,62,0.5,120.2-0.4,178.4c-0.2,12.7-2.1,26.2-11.5,37c-9.7,11.1-22.1,7.8-28.5,0.5c-2.9-3.3-5.9-7.6-6.6-11.8
	c-2-12-5.5-24.7-3.5-36.3c5.4-31.5-0.5-63.3,3.8-94.3c5.2-37,0.9-73.9,3.3-110.8c0.7-11.1,3.9-22.2,7.2-32.9
	c2.2-7.2,8.6-11.7,16.5-11.2c7.5,0.4,14,9.8,16.3,17.4C342.7,127.9,337.3,150.7,339.3,169.4z"/>
<path d="M1102.8,554.8c0-4.4-0.1-8.7,0-13.1c0.2-6.2,2-11.2,9.4-11.6c7.2-0.4,11.8,3.2,12.2,10.8c0.5,9.5,1.3,19.3-0.4,28.6
	c-0.8,4.3-7,7.6-10.8,11.3c-3.5-3.7-8.3-6.9-10.1-11.4C1101.4,565.2,1102.8,559.7,1102.8,554.8z"/>
</svg>
